<svg xmlns="http://www.w3.org/2000/svg" viewBox="0 0 46.45 7.76"><defs><style>.cls-1{fill:#fff;}</style></defs><title>Asset 1popup-lables</title><g id="Layer_2" data-name="Layer 2"><g id="Layer_1-2" data-name="Layer 1"><g id="Layer_2-2" data-name="Layer 2"><g id="Layer_1-2-2" data-name="Layer 1-2"><path class="cls-1" d="M1.83,7.71H0V0H1.83ZM6.5,5.84a2,2,0,0,1,0-4,2,2,0,0,1,1.73,1h1.95a3.86,3.86,0,1,0,0,1.86H8.23A2,2,0,0,1,6.5,5.84M27,3.73h0a3.74,3.74,0,0,0-7.47,0h0v4h1.83V3.77h0a1.91,1.91,0,1,1,3.81,0h0V7.71H27Zm-10.2.13a2,2,0,1,0-2,2,2,2,0,0,0,2-2m1.84.06A3.85,3.85,0,1,1,14.79,0a3.85,3.85,0,0,1,3.85,3.92h0"/></g></g><path class="cls-1" d="M31.6,3.15a1.23,1.23,0,0,1-.47-.49A1.26,1.26,0,0,1,31,2h0a1.26,1.26,0,0,1,.17-.67A1.23,1.23,0,0,1,31.6.83a1.31,1.31,0,0,1,.69-.18,1.42,1.42,0,0,1,.57.1,1.56,1.56,0,0,1,.44.3L33,1.39a1.77,1.77,0,0,0-.34-.24,1,1,0,0,0-.38-.08.83.83,0,0,0-.44.12.9.9,0,0,0-.31.33,1,1,0,0,0-.11.46h0a1,1,0,0,0,.11.46.9.9,0,0,0,.31.33.92.92,0,0,0,.83,0A1.43,1.43,0,0,0,33,2.57l.29.3a1.76,1.76,0,0,1-.46.34,1.35,1.35,0,0,1-.59.11A1.26,1.26,0,0,1,31.6,3.15Z"/><path class="cls-1" d="M34.19,1.33v.44a.82.82,0,0,1,.27-.36.74.74,0,0,1,.42-.12v.48h0a.63.63,0,0,0-.49.19.86.86,0,0,0-.18.58v.74h-.45V1.33Z"/><path class="cls-1" d="M35.59,3.2a.89.89,0,0,1-.36-.36,1,1,0,0,1-.14-.53h0a1.07,1.07,0,0,1,.13-.51.87.87,0,0,1,.34-.37.83.83,0,0,1,.49-.14.93.93,0,0,1,.51.14,1,1,0,0,1,.32.38,1.32,1.32,0,0,1,.1.53.68.68,0,0,1,0,.12H35.54a.63.63,0,0,0,.19.37A.59.59,0,0,0,36.1,3a.68.68,0,0,0,.29-.06,1.18,1.18,0,0,0,.24-.17l.26.23a1,1,0,0,1-.79.36A1.07,1.07,0,0,1,35.59,3.2Zm.8-1.4A.43.43,0,0,0,36,1.66a.45.45,0,0,0-.34.14.63.63,0,0,0-.16.37h1A.69.69,0,0,0,36.39,1.8Z"/><path class="cls-1" d="M37.65,3.25A.58.58,0,0,1,37.4,3a.51.51,0,0,1-.1-.32h0a.57.57,0,0,1,.22-.47,1,1,0,0,1,.59-.16,1.82,1.82,0,0,1,.52.08v0a.41.41,0,0,0-.12-.32.53.53,0,0,0-.36-.11,1.2,1.2,0,0,0-.28,0l-.28.09-.12-.35.35-.12a2.13,2.13,0,0,1,.39,0,.87.87,0,0,1,.64.22.81.81,0,0,1,.21.6V3.28h-.43V3a.79.79,0,0,1-.64.28A.77.77,0,0,1,37.65,3.25Zm.84-.37a.37.37,0,0,0,.15-.3V2.45a1,1,0,0,0-.44-.08.63.63,0,0,0-.34.08.29.29,0,0,0-.12.24h0a.25.25,0,0,0,.11.22.46.46,0,0,0,.27.08A.57.57,0,0,0,38.49,2.88Z"/><path class="cls-1" d="M39.67,2.74v-1h-.24V1.33h.24V.79h.45v.54h.53v.38h-.53v1a.21.21,0,0,0,.24.24.67.67,0,0,0,.28-.06v.36a.77.77,0,0,1-.4.1A.5.5,0,0,1,39.67,2.74Z"/><path class="cls-1" d="M41.59.61V1h-.48V.61Zm0,.72V3.28h-.44V1.33Z"/><path class="cls-1" d="M42.2,1.33l.53,1.43.53-1.43h.46l-.79,2h-.4l-.81-2Z"/><path class="cls-1" d="M44.38,3.2A1,1,0,0,1,44,2.84a1,1,0,0,1-.13-.53h0A1.07,1.07,0,0,1,44,1.8a.87.87,0,0,1,.34-.37.83.83,0,0,1,.49-.14.93.93,0,0,1,.51.14.91.91,0,0,1,.32.38,1.32,1.32,0,0,1,.1.53v.12H44.33a.63.63,0,0,0,.19.37A.6.6,0,0,0,44.9,3a.64.64,0,0,0,.28-.06,1.18,1.18,0,0,0,.24-.17l.27.23a1,1,0,0,1-.8.36A1.07,1.07,0,0,1,44.38,3.2Zm.8-1.4a.48.48,0,0,0-.68,0,.64.64,0,0,0-.17.37h1A.57.57,0,0,0,45.18,1.8Z"/><path class="cls-1" d="M31.49,5.13l1.39,1.78V5.13h.44V7.71h-.38L31.52,5.87V7.71h-.45V5.13Z"/><path class="cls-1" d="M34.23,7.63a.89.89,0,0,1-.36-.36,1,1,0,0,1-.13-.53h0a1.07,1.07,0,0,1,.12-.51.87.87,0,0,1,.34-.37.91.91,0,0,1,.49-.14.93.93,0,0,1,.51.14,1,1,0,0,1,.32.38,1.32,1.32,0,0,1,.1.53v.12H34.18a.63.63,0,0,0,.19.37.54.54,0,0,0,.37.13A.68.68,0,0,0,35,7.33a.89.89,0,0,0,.24-.17l.26.23a1,1,0,0,1-.79.37A1.07,1.07,0,0,1,34.23,7.63Zm.8-1.4a.48.48,0,0,0-.68,0,.58.58,0,0,0-.17.37h1A.65.65,0,0,0,35,6.23Z"/><path class="cls-1" d="M36.17,7.17v-1h-.25V5.76h.25V5.23h.44v.53h.53v.39h-.53V7.1a.22.22,0,0,0,.24.25.68.68,0,0,0,.28-.07v.36a.77.77,0,0,1-.4.1A.5.5,0,0,1,36.17,7.17Z"/><path class="cls-1" d="M37.89,5.76l.39,1.34.43-1.35h.38l.44,1.35.39-1.34h.46l-.64,2h-.41L38.9,6.39l-.44,1.34h-.4l-.63-2Z"/><path class="cls-1" d="M41.08,7.62a.94.94,0,0,1-.37-.37,1,1,0,0,1-.14-.5h0a1,1,0,0,1,.14-.51.94.94,0,0,1,.37-.37,1.08,1.08,0,0,1,.53-.14,1,1,0,0,1,.53.14.94.94,0,0,1,.51.87h0a1,1,0,0,1-.14.51,1,1,0,0,1-.37.37,1.08,1.08,0,0,1-.53.14A1,1,0,0,1,41.08,7.62Zm.84-.34a.56.56,0,0,0,.21-.22.67.67,0,0,0,.07-.31h0a.64.64,0,0,0-.07-.31.61.61,0,0,0-.22-.23.53.53,0,0,0-.3-.09.54.54,0,0,0-.31.09.56.56,0,0,0-.21.22.67.67,0,0,0-.07.31h0a.55.55,0,0,0,.08.31.58.58,0,0,0,.21.23.52.52,0,0,0,.3.08A.53.53,0,0,0,41.92,7.28Z"/><path class="cls-1" d="M43.55,5.76V6.2a1,1,0,0,1,.27-.36.74.74,0,0,1,.42-.12V6.2h0a.63.63,0,0,0-.49.19.86.86,0,0,0-.18.58v.74H43.1V5.76Z"/><path class="cls-1" d="M45.08,5V6.63l.8-.87h.55l-.78.8.8,1.15h-.52l-.58-.84-.27.28v.56h-.45V5Z"/></g></g></svg>