<svg xmlns="http://www.w3.org/2000/svg" viewBox="0 0 24.93 24.93"><defs><style>.cls-1,.cls-2,.cls-3{fill:none;stroke:#db62ab;}.cls-1,.cls-2{stroke-linecap:round;stroke-linejoin:round;stroke-width:1.5px;}.cls-2{opacity:0.4;}.cls-3{stroke-miterlimit:10;stroke-width:1px;opacity:0;}</style></defs><title>Asset 2popup-lables</title><g id="Layer_2" data-name="Layer 2"><g id="Layer_1-2" data-name="Layer 1"><rect class="cls-1" x="7.1" y="7.1" width="10.74" height="10.74" rx="3.76"/><path class="cls-2" d="M22.44,6.25V9.47c0,2.69-1.08,3.76-3.76,3.76h-.85V10.85c0-2.68-1.07-3.75-3.75-3.75H11.7V6.25c0-2.68,1.07-3.76,3.76-3.76h3.22C21.36,2.49,22.44,3.57,22.44,6.25Z"/><path class="cls-2" d="M2.49,18.68V15.46c0-2.69,1.08-3.76,3.76-3.76H7.1v2.38c0,2.68,1.07,3.75,3.75,3.75h2.38v.85c0,2.68-1.07,3.76-3.76,3.76H6.25C3.57,22.44,2.49,21.36,2.49,18.68Z"/><rect class="cls-3" x="0.5" y="0.5" width="23.93" height="23.93"/></g></g></svg>